<mxfile host="app.diagrams.net" modified="2020-09-22T08:17:26.662Z" agent="5.0 (Windows NT 10.0; Win64; x64) AppleWebKit/537.36 (KHTML, like Gecko) Chrome/85.0.4183.102 Safari/537.36" etag="tD4Sk7Kld9DMp__4phR6" version="13.7.3" type="github">
  <diagram id="R2lEEEUBdFMjLlhIrx00" name="Page-1">
    <mxGraphModel dx="1038" dy="617" grid="1" gridSize="10" guides="1" tooltips="1" connect="1" arrows="1" fold="1" page="1" pageScale="1" pageWidth="850" pageHeight="1100" background="#114B5F" math="0" shadow="0" extFonts="Permanent Marker^https://fonts.googleapis.com/css?family=Permanent+Marker">
      <root>
        <mxCell id="0" />
        <mxCell id="1" parent="0" />
        <mxCell id="sudzJqYAnIuRQkvaS4UY-31" value="Disease" style="swimlane;childLayout=stackLayout;horizontal=1;startSize=30;horizontalStack=0;rounded=1;fontSize=14;fontStyle=0;strokeWidth=2;resizeParent=0;resizeLast=1;shadow=0;dashed=0;align=center;fillColor=#F45B69;strokeColor=#028090;fontColor=#E4FDE1;" vertex="1" parent="1">
          <mxGeometry x="310" y="110" width="190" height="150" as="geometry" />
        </mxCell>
        <mxCell id="sudzJqYAnIuRQkvaS4UY-32" value="+ D_Name&#xa;+ C_ID&#xa;+ Nutrients Defiency&#xa;+ D_ID&#xa;+ Description&#xa;" style="align=left;strokeColor=none;fillColor=none;spacingLeft=4;fontSize=12;verticalAlign=top;resizable=0;rotatable=0;part=1;fontColor=#E4FDE1;" vertex="1" parent="sudzJqYAnIuRQkvaS4UY-31">
          <mxGeometry y="30" width="190" height="120" as="geometry" />
        </mxCell>
        <mxCell id="sudzJqYAnIuRQkvaS4UY-43" value="" style="edgeStyle=entityRelationEdgeStyle;fontSize=12;html=1;endArrow=ERzeroToMany;endFill=1;strokeColor=#028090;fontColor=#E4FDE1;labelBackgroundColor=#114B5F;" edge="1" parent="1">
          <mxGeometry width="100" height="100" relative="1" as="geometry">
            <mxPoint x="500" y="210" as="sourcePoint" />
            <mxPoint x="600" y="110" as="targetPoint" />
          </mxGeometry>
        </mxCell>
        <mxCell id="sudzJqYAnIuRQkvaS4UY-36" value="Products" style="swimlane;childLayout=stackLayout;horizontal=1;startSize=30;horizontalStack=0;rounded=1;fontSize=14;fontStyle=0;strokeWidth=2;resizeParent=0;resizeLast=1;shadow=0;dashed=0;align=center;fillColor=#F45B69;strokeColor=#028090;fontColor=#E4FDE1;" vertex="1" parent="1">
          <mxGeometry x="600" y="40" width="180" height="150" as="geometry" />
        </mxCell>
        <mxCell id="sudzJqYAnIuRQkvaS4UY-37" value="+ P_ID&#xa;+ D_ID&#xa;+ Brand&#xa;+ P_Name&#xa;+ Content&#xa;" style="align=left;strokeColor=none;fillColor=none;spacingLeft=4;fontSize=12;verticalAlign=top;resizable=0;rotatable=0;part=1;fontStyle=0;fontColor=#E4FDE1;" vertex="1" parent="sudzJqYAnIuRQkvaS4UY-36">
          <mxGeometry y="30" width="180" height="120" as="geometry" />
        </mxCell>
        <mxCell id="sudzJqYAnIuRQkvaS4UY-45" value="" style="edgeStyle=entityRelationEdgeStyle;fontSize=12;html=1;endArrow=ERzeroToMany;endFill=1;startArrow=ERzeroToMany;strokeColor=#028090;fontColor=#E4FDE1;labelBackgroundColor=#114B5F;" edge="1" parent="1">
          <mxGeometry width="100" height="100" relative="1" as="geometry">
            <mxPoint x="210" y="280" as="sourcePoint" />
            <mxPoint x="310" y="180" as="targetPoint" />
          </mxGeometry>
        </mxCell>
        <mxCell id="sudzJqYAnIuRQkvaS4UY-27" value="Crops" style="swimlane;childLayout=stackLayout;horizontal=1;startSize=30;horizontalStack=0;rounded=1;fontSize=14;fontStyle=0;strokeWidth=2;resizeParent=0;resizeLast=1;shadow=0;dashed=0;align=center;fillColor=#F45B69;strokeColor=#028090;fontColor=#E4FDE1;" vertex="1" parent="1">
          <mxGeometry x="130" y="230" width="80" height="90" as="geometry" />
        </mxCell>
        <mxCell id="sudzJqYAnIuRQkvaS4UY-28" value="+Name&#xa;+C_id&#xa;" style="align=left;strokeColor=none;fillColor=none;spacingLeft=4;fontSize=12;verticalAlign=top;resizable=0;rotatable=0;part=1;fontColor=#E4FDE1;" vertex="1" parent="sudzJqYAnIuRQkvaS4UY-27">
          <mxGeometry y="30" width="80" height="60" as="geometry" />
        </mxCell>
        <mxCell id="sudzJqYAnIuRQkvaS4UY-48" value="" style="edgeStyle=entityRelationEdgeStyle;fontSize=12;html=1;endArrow=ERzeroToMany;startArrow=ERmandOne;entryX=0;entryY=0.5;entryDx=0;entryDy=0;exitX=1.006;exitY=0.317;exitDx=0;exitDy=0;exitPerimeter=0;strokeColor=#028090;fontColor=#E4FDE1;labelBackgroundColor=#114B5F;" edge="1" parent="1" source="sudzJqYAnIuRQkvaS4UY-47" target="sudzJqYAnIuRQkvaS4UY-28">
          <mxGeometry width="100" height="100" relative="1" as="geometry">
            <mxPoint x="390" y="490" as="sourcePoint" />
            <mxPoint x="490" y="390" as="targetPoint" />
          </mxGeometry>
        </mxCell>
        <mxCell id="sudzJqYAnIuRQkvaS4UY-46" value="Users" style="swimlane;childLayout=stackLayout;horizontal=1;startSize=30;horizontalStack=0;rounded=1;fontSize=14;fontStyle=0;strokeWidth=2;resizeParent=0;resizeLast=1;shadow=0;dashed=0;align=center;fillColor=#F45B69;strokeColor=#028090;fontColor=#E4FDE1;" vertex="1" parent="1">
          <mxGeometry x="40" y="420" width="190" height="170" as="geometry" />
        </mxCell>
        <mxCell id="sudzJqYAnIuRQkvaS4UY-47" value="+ U_id&#xa;+ G-mail&#xa;+ Phone_no (opt)&#xa;+ C_ID&#xa;+ Location_ID&#xa;+ " style="align=left;strokeColor=none;fillColor=none;spacingLeft=4;fontSize=12;verticalAlign=top;resizable=0;rotatable=0;part=1;fontColor=#E4FDE1;" vertex="1" parent="sudzJqYAnIuRQkvaS4UY-46">
          <mxGeometry y="30" width="190" height="140" as="geometry" />
        </mxCell>
        <mxCell id="sudzJqYAnIuRQkvaS4UY-49" value="" style="edgeStyle=entityRelationEdgeStyle;fontSize=12;html=1;endArrow=ERzeroToMany;startArrow=ERmandOne;strokeColor=#028090;fontColor=#E4FDE1;labelBackgroundColor=#114B5F;" edge="1" parent="1">
          <mxGeometry width="100" height="100" relative="1" as="geometry">
            <mxPoint x="230" y="530" as="sourcePoint" />
            <mxPoint x="450" y="410" as="targetPoint" />
          </mxGeometry>
        </mxCell>
        <mxCell id="sudzJqYAnIuRQkvaS4UY-39" value="Shops" style="swimlane;childLayout=stackLayout;horizontal=1;startSize=30;horizontalStack=0;rounded=1;fontSize=14;fontStyle=0;strokeWidth=2;resizeParent=0;resizeLast=1;shadow=0;dashed=0;align=center;fillColor=#F45B69;strokeColor=#028090;fontColor=#E4FDE1;" vertex="1" parent="1">
          <mxGeometry x="450" y="350" width="160" height="120" as="geometry" />
        </mxCell>
        <mxCell id="sudzJqYAnIuRQkvaS4UY-40" value="+ S_ID&#xa;+ S_name&#xa;+ Location_ID&#xa;+ contact &#xa;+" style="align=left;strokeColor=none;fillColor=none;spacingLeft=4;fontSize=12;verticalAlign=top;resizable=0;rotatable=0;part=1;fontColor=#E4FDE1;" vertex="1" parent="sudzJqYAnIuRQkvaS4UY-39">
          <mxGeometry y="30" width="160" height="90" as="geometry" />
        </mxCell>
        <mxCell id="sudzJqYAnIuRQkvaS4UY-59" value="" style="edgeStyle=entityRelationEdgeStyle;fontSize=12;html=1;endArrow=ERzeroToMany;startArrow=ERzeroToOne;strokeColor=#028090;fillColor=#F45B69;exitX=1;exitY=0.75;exitDx=0;exitDy=0;entryX=-0.014;entryY=0.338;entryDx=0;entryDy=0;entryPerimeter=0;fontColor=#E4FDE1;labelBackgroundColor=#114B5F;" edge="1" parent="1" source="sudzJqYAnIuRQkvaS4UY-47" target="sudzJqYAnIuRQkvaS4UY-54">
          <mxGeometry width="100" height="100" relative="1" as="geometry">
            <mxPoint x="230" y="640" as="sourcePoint" />
            <mxPoint x="330" y="540" as="targetPoint" />
          </mxGeometry>
        </mxCell>
        <mxCell id="sudzJqYAnIuRQkvaS4UY-57" value="Event" style="swimlane;childLayout=stackLayout;horizontal=1;startSize=30;horizontalStack=0;rounded=1;fontSize=14;fontStyle=0;strokeWidth=2;resizeParent=0;resizeLast=1;shadow=0;dashed=0;align=center;sketch=0;fillColor=#F45B69;strokeColor=#028090;fontColor=#E4FDE1;" vertex="1" parent="1">
          <mxGeometry x="630" y="510" width="160" height="120" as="geometry" />
        </mxCell>
        <mxCell id="sudzJqYAnIuRQkvaS4UY-58" value="+E_Name&#xa;+E_id&#xa;+E_Date&#xa;+Description&#xa;" style="align=left;strokeColor=none;fillColor=none;spacingLeft=4;fontSize=12;verticalAlign=top;resizable=0;rotatable=0;part=1;fontColor=#E4FDE1;" vertex="1" parent="sudzJqYAnIuRQkvaS4UY-57">
          <mxGeometry y="30" width="160" height="90" as="geometry" />
        </mxCell>
        <mxCell id="sudzJqYAnIuRQkvaS4UY-60" value="" style="edgeStyle=entityRelationEdgeStyle;fontSize=12;html=1;endArrow=ERzeroToMany;startArrow=ERmandOne;strokeColor=#028090;fillColor=#F45B69;exitX=1;exitY=0.5;exitDx=0;exitDy=0;entryX=0;entryY=0.5;entryDx=0;entryDy=0;fontColor=#E4FDE1;labelBackgroundColor=#114B5F;" edge="1" parent="1" source="sudzJqYAnIuRQkvaS4UY-54" target="sudzJqYAnIuRQkvaS4UY-57">
          <mxGeometry width="100" height="100" relative="1" as="geometry">
            <mxPoint x="540" y="770" as="sourcePoint" />
            <mxPoint x="640" y="670" as="targetPoint" />
          </mxGeometry>
        </mxCell>
        <mxCell id="sudzJqYAnIuRQkvaS4UY-53" value="Schedular" style="swimlane;childLayout=stackLayout;horizontal=1;startSize=30;horizontalStack=0;rounded=1;fontSize=14;fontStyle=0;strokeWidth=2;resizeParent=0;resizeLast=1;shadow=0;dashed=0;align=center;sketch=0;fillColor=#F45B69;strokeColor=#028090;fontColor=#E4FDE1;" vertex="1" parent="1">
          <mxGeometry x="360" y="540" width="160" height="120" as="geometry" />
        </mxCell>
        <mxCell id="sudzJqYAnIuRQkvaS4UY-54" value="+ C_ID&#xa;+ U_ID&#xa;" style="align=left;strokeColor=none;fillColor=none;spacingLeft=4;fontSize=12;verticalAlign=top;resizable=0;rotatable=0;part=1;fontColor=#E4FDE1;" vertex="1" parent="sudzJqYAnIuRQkvaS4UY-53">
          <mxGeometry y="30" width="160" height="90" as="geometry" />
        </mxCell>
        <mxCell id="sudzJqYAnIuRQkvaS4UY-61" value="Secondary Income" style="swimlane;childLayout=stackLayout;horizontal=1;startSize=30;horizontalStack=0;rounded=1;fontSize=14;fontStyle=0;strokeWidth=2;resizeParent=0;resizeLast=1;shadow=0;dashed=0;align=center;sketch=0;fillColor=#F45B69;strokeColor=#028090;fontColor=#E4FDE1;" vertex="1" parent="1">
          <mxGeometry x="220" y="710" width="160" height="120" as="geometry" />
        </mxCell>
        <mxCell id="sudzJqYAnIuRQkvaS4UY-62" value="+ Name&#xa;+ Catergory&#xa;+ Description&#xa;+ Requirements&#xa;+ Govt_schemes" style="align=left;strokeColor=none;fillColor=none;spacingLeft=4;fontSize=12;verticalAlign=top;resizable=0;rotatable=0;part=1;fontColor=#E4FDE1;" vertex="1" parent="sudzJqYAnIuRQkvaS4UY-61">
          <mxGeometry y="30" width="160" height="90" as="geometry" />
        </mxCell>
      </root>
    </mxGraphModel>
  </diagram>
</mxfile>
